<svg width="26" height="26" viewBox="0 0 26 26" fill="none" xmlns="http://www.w3.org/2000/svg">
<g clip-path="url(#clip0_19_2342)">
<path d="M13 26C20.1797 26 26 20.1797 26 13C26 5.8203 20.1797 0 13 0C5.8203 0 0 5.8203 0 13C0 20.1797 5.8203 26 13 26Z" fill="white"/>
<path d="M12.7469 15.849C12.671 15.849 12.6013 15.8363 12.538 15.8111C12.4747 15.7857 12.4113 15.7414 12.348 15.6781L10.2018 13.5318C10.0878 13.4179 10.034 13.2817 10.0403 13.1235C10.0466 12.9652 10.1068 12.8291 10.2207 12.7151C10.3347 12.6012 10.4708 12.5442 10.6291 12.5442C10.7874 12.5442 10.9235 12.6012 11.0375 12.7151L12.1771 13.8737V10.7588C12.1771 10.5942 12.2309 10.458 12.3385 10.3504C12.4462 10.2428 12.5823 10.1889 12.7469 10.1889C12.9115 10.1889 13.0476 10.2428 13.1552 10.3504C13.2629 10.458 13.3167 10.5942 13.3167 10.7588V13.8737L14.4753 12.7151C14.5893 12.6012 14.7254 12.5473 14.8837 12.5536C15.042 12.56 15.1781 12.6201 15.292 12.7341C15.406 12.8481 15.463 12.9842 15.463 13.1424C15.463 13.3008 15.406 13.4369 15.292 13.5508L13.1457 15.6781C13.0824 15.7414 13.0192 15.7857 12.9558 15.8111C12.8925 15.8363 12.8229 15.849 12.7469 15.849ZM8.56832 21.3571C8.25176 21.3571 7.98269 21.2464 7.76109 21.0247C7.53951 20.8032 7.42871 20.5341 7.42871 20.2175V5.78247C7.42871 5.46591 7.53951 5.19684 7.76109 4.97524C7.98269 4.75366 8.25176 4.64286 8.56832 4.64286H16.9255C17.242 4.64286 17.5111 4.75366 17.7327 4.97524C17.9543 5.19684 18.065 5.46591 18.065 5.78247V20.2175C18.065 20.5341 17.9543 20.8032 17.7327 21.0247C17.5111 21.2464 17.242 21.3571 16.9255 21.3571H8.56832ZM8.56832 18.5081H16.9255V7.49188H8.56832V18.5081ZM8.56832 19.6477V20.2175H16.9255V19.6477H8.56832ZM8.56832 6.35228H16.9255V5.78247H8.56832V6.35228Z" fill="#00AA6A"/>
</g>
<defs>
<clipPath id="clip0_19_2342">
<rect width="26" height="26" fill="white"/>
</clipPath>
</defs>
</svg>
