<svg width="25" height="25" viewBox="0 0 25 25" fill="none" xmlns="http://www.w3.org/2000/svg">
<g clip-path="url(#clip0_19_1723)">
<path d="M12.085 18.5C12.3586 18.5 12.5852 18.4107 12.7645 18.2322C12.943 18.0528 13.0323 17.8264 13.0323 17.5526V12.1526C13.0323 11.9 12.943 11.684 12.7645 11.5046C12.5852 11.3261 12.3586 11.2368 12.085 11.2368C11.8113 11.2368 11.5852 11.3261 11.4066 11.5046C11.2273 11.684 11.1376 11.9105 11.1376 12.1842V17.5842C11.1376 17.8368 11.2273 18.0528 11.4066 18.2322C11.5852 18.4107 11.8113 18.5 12.085 18.5ZM12.085 9.08947C12.3797 9.08947 12.6218 8.98927 12.8113 8.78884C13.0007 8.58926 13.0955 8.3421 13.0955 8.04737C13.0955 7.77368 13.0007 7.53664 12.8113 7.33621C12.6218 7.13663 12.3797 7.03684 12.085 7.03684C11.7902 7.03684 11.5481 7.13663 11.3586 7.33621C11.1692 7.53664 11.0744 7.77368 11.0744 8.04737C11.0744 8.3421 11.1692 8.58926 11.3586 8.78884C11.5481 8.98927 11.7902 9.08947 12.085 9.08947ZM12.085 24.5C10.4218 24.5 8.85886 24.1842 7.39612 23.5526C5.93254 22.9211 4.66391 22.0684 3.59022 20.9947C2.51654 19.9211 1.66391 18.6525 1.03233 17.1888C0.40075 15.7261 0.0849609 14.1632 0.0849609 12.5C0.0849609 10.8368 0.40075 9.27348 1.03233 7.80989C1.66391 6.34716 2.51654 5.07895 3.59022 4.00526C4.66391 2.93158 5.93254 2.07895 7.39612 1.44737C8.85886 0.815789 10.4218 0.5 12.085 0.5C13.7482 0.5 15.3114 0.815789 16.7751 1.44737C18.2378 2.07895 19.506 2.93158 20.5797 4.00526C21.6534 5.07895 22.506 6.34716 23.1376 7.80989C23.7692 9.27348 24.085 10.8368 24.085 12.5C24.085 14.1632 23.7692 15.7261 23.1376 17.1888C22.506 18.6525 21.6534 19.9211 20.5797 20.9947C19.506 22.0684 18.2378 22.9211 16.7751 23.5526C15.3114 24.1842 13.7482 24.5 12.085 24.5ZM12.085 22.6053C14.885 22.6053 17.2693 21.6213 19.2382 19.6533C21.2062 17.6844 22.1902 15.3 22.1902 12.5C22.1902 9.7 21.2062 7.31558 19.2382 5.34674C17.2693 3.37874 14.885 2.39474 12.085 2.39474C9.28496 2.39474 6.90096 3.37874 4.93296 5.34674C2.96411 7.31558 1.9797 9.7 1.9797 12.5C1.9797 15.3 2.96411 17.6844 4.93296 19.6533C6.90096 21.6213 9.28496 22.6053 12.085 22.6053Z" fill="#878787"/>
</g>
<defs>
<clipPath id="clip0_19_1723">
<rect width="24" height="24" fill="white" transform="translate(0.0849609 0.5)"/>
</clipPath>
</defs>
</svg>
