<svg width="32" height="33" viewBox="0 0 32 33" fill="none" xmlns="http://www.w3.org/2000/svg">
<g clip-path="url(#clip0_19_1265)">
<path fill-rule="evenodd" clip-rule="evenodd" d="M25.9036 0.984863C26.9063 0.984863 27.8141 1.3913 28.4713 2.04842C29.1284 2.70554 29.5349 3.61334 29.5349 4.61607V26.4033C29.5349 26.6768 29.4239 26.9244 29.2447 27.1036C29.0655 27.2828 28.818 27.3936 28.5445 27.3936H3.45614C3.18268 27.3936 2.9351 27.2828 2.75588 27.1036C2.57667 26.9244 2.46582 26.6768 2.46582 26.4033V4.61607C2.46582 3.61334 2.87225 2.70554 3.52937 2.04842C4.18649 1.3913 5.09429 0.984863 6.09703 0.984863H25.9036Z" fill="#D5D9DD" stroke="#C0C6CC" stroke-width="0.969697"/>
<path fill-rule="evenodd" clip-rule="evenodd" d="M27.554 27.3936V29.7043C27.554 30.3425 27.2953 30.9201 26.8771 31.3383C26.459 31.7565 25.8813 32.0151 25.2432 32.0151H6.75706C6.11896 32.0151 5.54127 31.7565 5.1231 31.3383C4.70494 30.9201 4.44629 30.3425 4.44629 29.7043V27.3936H27.554Z" fill="#D5D9DD" stroke="#C0C6CC" stroke-width="0.969697"/>
<path d="M4.44569 12.8688C4.44569 11.7749 3.55892 10.8882 2.46503 10.8882C1.37114 10.8882 0.484375 11.7749 0.484375 12.8688V21.4517C0.484375 22.5456 1.37114 23.4323 2.46503 23.4323C3.55892 23.4323 4.44569 22.5456 4.44569 21.4517V12.8688Z" fill="#D5D9DD" stroke="#C0C6CC" stroke-width="0.969697"/>
<path d="M31.515 12.8688C31.515 11.7749 30.6282 10.8882 29.5343 10.8882C28.4405 10.8882 27.5537 11.7749 27.5537 12.8688V21.4517C27.5537 22.5456 28.4405 23.4323 29.5343 23.4323C30.6282 23.4323 31.515 22.5456 31.515 21.4517V12.8688Z" fill="#D5D9DD" stroke="#C0C6CC" stroke-width="0.969697"/>
</g>
<defs>
<clipPath id="clip0_19_1265">
<rect width="32" height="32" fill="white" transform="translate(0 0.5)"/>
</clipPath>
</defs>
</svg>
