<svg width="33" height="33" viewBox="0 0 33 33" fill="none" xmlns="http://www.w3.org/2000/svg">
<g clip-path="url(#clip0_19_1503)">
<path fill-rule="evenodd" clip-rule="evenodd" d="M26.5433 0.984863C27.5459 0.984863 28.4538 1.3913 29.1109 2.04842C29.768 2.70554 30.1745 3.61334 30.1745 4.61607V26.4033C30.1745 26.6768 30.0636 26.9244 29.8844 27.1036C29.7052 27.2828 29.4576 27.3936 29.1841 27.3936H4.09579C3.82233 27.3936 3.57474 27.2828 3.39552 27.1036C3.21631 26.9244 3.10547 26.6768 3.10547 26.4033V4.61607C3.10547 3.61334 3.5119 2.70554 4.16902 2.04842C4.82614 1.3913 5.73394 0.984863 6.73667 0.984863H26.5433Z" fill="#FDEDE8" stroke="#F8BEAB" stroke-width="0.969697"/>
<path fill-rule="evenodd" clip-rule="evenodd" d="M28.1936 27.3936V29.7043C28.1936 30.3425 27.935 30.9201 27.5168 31.3383C27.0986 31.7565 26.521 32.0151 25.8828 32.0151H7.39671C6.75861 32.0151 6.18092 31.7565 5.76275 31.3383C5.34458 30.9201 5.08594 30.3425 5.08594 29.7043V27.3936H28.1936Z" fill="#FDEDE8" stroke="#F8BEAB" stroke-width="0.969697"/>
<path d="M5.08534 12.8688C5.08534 11.7749 4.19856 10.8882 3.10468 10.8882C2.01079 10.8882 1.12402 11.7749 1.12402 12.8688V21.4517C1.12402 22.5456 2.01079 23.4323 3.10468 23.4323C4.19856 23.4323 5.08534 22.5456 5.08534 21.4517V12.8688Z" fill="#FDEDE8" stroke="#F8BEAB" stroke-width="0.969697"/>
<path d="M32.1547 12.8688C32.1547 11.7749 31.2679 10.8882 30.174 10.8882C29.0801 10.8882 28.1934 11.7749 28.1934 12.8688V21.4517C28.1934 22.5456 29.0801 23.4323 30.174 23.4323C31.2679 23.4323 32.1547 22.5456 32.1547 21.4517V12.8688Z" fill="#FDEDE8" stroke="#F8BEAB" stroke-width="0.969697"/>
</g>
<defs>
<clipPath id="clip0_19_1503">
<rect width="32" height="32" fill="white" transform="translate(0.639648 0.5)"/>
</clipPath>
</defs>
</svg>
