<svg width="13" height="13" viewBox="0 0 13 13" fill="none" xmlns="http://www.w3.org/2000/svg">
<g clip-path="url(#clip0_19_1644)">
<path fill-rule="evenodd" clip-rule="evenodd" d="M6.76953 0.299988C10.0829 0.299988 12.7695 2.9866 12.7695 6.29999C12.7695 9.61338 10.0829 12.3 6.76953 12.3C3.45614 12.3 0.769531 9.61338 0.769531 6.29999C0.769531 2.9866 3.45614 0.299988 6.76953 0.299988ZM8.48355 3.98061H8.48301L8.48194 3.98142L6.76953 5.69396L5.05712 3.98142C5.05658 3.98075 5.05632 3.98061 5.05605 3.98061C5.05574 3.98052 5.05542 3.98052 5.05511 3.98061C5.05471 3.98061 5.05444 3.98075 5.05391 3.98128L4.45096 4.58423C4.45064 4.58457 4.4504 4.58498 4.45029 4.58543C4.4502 4.58574 4.4502 4.58607 4.45029 4.58637V4.58664C4.45051 4.58695 4.45079 4.58722 4.45109 4.58744L6.1635 6.29999L4.45096 8.0124C4.45029 8.01293 4.45016 8.0132 4.45016 8.01347C4.45006 8.01378 4.45006 8.0141 4.45016 8.01441C4.45016 8.01481 4.45029 8.01508 4.45083 8.01561L5.05377 8.61856C5.05411 8.61888 5.05452 8.61911 5.05498 8.61923C5.05528 8.61932 5.05561 8.61932 5.05591 8.61923C5.05618 8.61923 5.05645 8.61909 5.05699 8.61856L6.76953 6.90601L8.48194 8.61856C8.48248 8.61909 8.48275 8.61923 8.48301 8.61923C8.48332 8.61932 8.48365 8.61932 8.48395 8.61923C8.48435 8.61923 8.48462 8.61909 8.48516 8.61856L9.0881 8.01561C9.08843 8.01528 9.08866 8.01486 9.08877 8.01441C9.08887 8.0141 9.08887 8.01378 9.08877 8.01347V8.0132C9.08859 8.0129 9.08836 8.01263 9.0881 8.0124L7.37556 6.29999L9.0881 4.58758C9.08864 4.58704 9.08877 4.58677 9.08877 4.58651C9.08887 4.5862 9.08887 4.58587 9.08877 4.58557C9.08877 4.58517 9.08864 4.5849 9.0881 4.58436L8.48516 3.98142C8.48482 3.98109 8.4844 3.98086 8.48395 3.98075C8.48365 3.98065 8.48332 3.98065 8.48301 3.98075L8.48355 3.98061Z" fill="black" fill-opacity="0.25"/>
</g>
<defs>
<clipPath id="clip0_19_1644">
<rect width="12" height="12" fill="white" transform="translate(0.769531 0.299988)"/>
</clipPath>
</defs>
</svg>
