<svg width="26" height="26" viewBox="0 0 26 26" fill="none" xmlns="http://www.w3.org/2000/svg">
<g clip-path="url(#clip0_19_2326)">
<path d="M13.0001 24.6071C19.4103 24.6071 24.6067 19.4107 24.6067 13.0006C24.6067 6.59042 19.4103 1.39397 13.0001 1.39397C6.59 1.39397 1.39355 6.59042 1.39355 13.0006C1.39355 19.4107 6.59 24.6071 13.0001 24.6071Z" fill="white" stroke="white" stroke-width="2.78571"/>
<path d="M25.2572 8.66559C25.2559 8.66146 25.2546 8.65801 25.2532 8.65428C23.5893 3.96312 19.3097 0.51162 14.168 0.0534592C16.1576 1.14422 16.7386 4.60005 17.2478 8.66564C17.5955 11.4427 17.5977 14.5025 17.2544 17.2829C16.7496 21.3706 16.1661 24.8508 14.1681 25.9461C19.3193 25.4872 23.6049 22.0237 25.2623 17.3199C25.2666 17.3074 25.2702 17.2951 25.2748 17.2829C25.7428 15.9416 26.0004 14.501 26.0004 13.0002C26.0001 11.4796 25.7368 10.0214 25.2572 8.66559Z" fill="#E12A28"/>
<path d="M17.9165 8.66559C17.4077 4.59994 16.1572 1.14417 14.1674 0.0534072C13.7825 0.0193211 13.3933 0 12.9997 0C7.34452 0 2.53522 3.61188 0.746933 8.65428C0.745506 8.65796 0.744244 8.66147 0.742816 8.66559C0.263359 10.0214 0 11.4796 0 13.0001C0 14.5012 0.257595 15.9415 0.725581 17.2829C0.729918 17.295 0.733815 17.3073 0.738096 17.3198C2.51936 22.3752 7.33524 25.9997 12.9996 25.9997C13.3933 25.9997 13.7825 25.9804 14.1674 25.946C16.1654 24.8507 17.4183 21.3704 17.923 17.2829C18.2665 14.5022 18.2643 11.4426 17.9165 8.66559Z" fill="#ED3432"/>
<path d="M12.883 6.33718L14.4272 11.0902H19.4251L15.3817 14.0272L16.926 18.7807L12.883 15.843L8.83971 18.7807L10.3841 14.0272L6.34082 11.0902H11.3386L12.883 6.33718Z" fill="#FDCE0C"/>
</g>
<defs>
<clipPath id="clip0_19_2326">
<rect width="26" height="26" fill="white"/>
</clipPath>
</defs>
</svg>
